<?xml version="1.0" encoding="utf-8"?>
<!-- Generator: Adobe Illustrator 16.0.0, SVG Export Plug-In . SVG Version: 6.00 Build 0)  -->
<!DOCTYPE svg PUBLIC "-//W3C//DTD SVG 1.1//EN" "http://www.w3.org/Graphics/SVG/1.1/DTD/svg11.dtd">
<svg version="1.1" id="Logo" xmlns="http://www.w3.org/2000/svg" xmlns:xlink="http://www.w3.org/1999/xlink" x="0px" y="0px"
	 width="125px" height="125px" viewBox="0 0 125 125" enable-background="new 0 0 125 125" xml:space="preserve">
<g id="Star">
	<path fill-rule="evenodd" clip-rule="evenodd" fill="#231F20" d="M59.276,48.313c0,0-6.781-3.668-4.248-11.254
		c0,0-7.279,5.879-12.406-0.445c0,0,2.779,6.387-3.927,11.638c0,0,7.617-1.142,10.423,6.921
		C49.118,55.173,51.849,48.157,59.276,48.313z"/>
</g>
<path id="J" fill-rule="evenodd" clip-rule="evenodd" fill="#231F20" d="M111.069,15.994c11.733,5.747-35.167,78.73-40.353,84.861
	c-5.629,6.654-14.113,13.609-26.641,12.24c-12.921-1.414-26.29-11.756-28.081-25.201C13.954,72.558,29.73,53.386,29.73,53.386
	l9.306,10.028c0,0-10.904,15.809-9.36,22.319s6.73,15.134,18.27,13.725s26.329-37.199,60.124-79.756
	c-9.555,3.336-36.792,47.407-46.714,62.432c-2.984,4.52-8.029,13.059-13.68,13.68c-7.737,0.852-13.8-5.426-14.399-10.799
	c-0.414-3.709,1.662-8.268,3.6-11.521c2.648-4.445,7.2-6.479,7.2-6.479s-5.434,9.238-5.04,16.559c0.164,3.072,1.284,6.078,5.76,6.48
	c4.65,0.42,10.289-7.896,13.681-12.959C69.261,60.987,99.335,10.248,111.069,15.994z"/>
</svg>
